<?xml version="1.0" encoding="UTF-8" standalone="no"?>
<!-- Created with Inkscape (http://www.inkscape.org/) -->

<svg
   xmlns:dc="http://purl.org/dc/elements/1.1/"
   xmlns:cc="http://creativecommons.org/ns#"
   xmlns:rdf="http://www.w3.org/1999/02/22-rdf-syntax-ns#"
   xmlns:svg="http://www.w3.org/2000/svg"
   xmlns="http://www.w3.org/2000/svg"
   xmlns:sodipodi="http://sodipodi.sourceforge.net/DTD/sodipodi-0.dtd"
   xmlns:inkscape="http://www.inkscape.org/namespaces/inkscape"
   width="200"
   height="120"
   id="svg4456"
   version="1.1"
   inkscape:version="0.48.2 r9819"
   sodipodi:docname="logo.svg"
   inkscape:export-filename="/home/jotux/Desktop/LaunchLib/logo/logo.png"
   inkscape:export-xdpi="62.218361"
   inkscape:export-ydpi="62.218361">
  <defs
     id="defs4458" />
  <sodipodi:namedview
     id="base"
     pagecolor="#ffffff"
     bordercolor="#666666"
     borderopacity="1.0"
     inkscape:pageopacity="0.0"
     inkscape:pageshadow="2"
     inkscape:zoom="2.8675"
     inkscape:cx="100"
     inkscape:cy="50"
     inkscape:document-units="px"
     inkscape:current-layer="layer1"
     showgrid="false"
     inkscape:window-width="1280"
     inkscape:window-height="776"
     inkscape:window-x="0"
     inkscape:window-y="24"
     inkscape:window-maximized="1" />
  <metadata
     id="metadata4461">
    <rdf:RDF>
      <cc:Work
         rdf:about="">
        <dc:format>image/svg+xml</dc:format>
        <dc:type
           rdf:resource="http://purl.org/dc/dcmitype/StillImage" />
        <dc:title></dc:title>
      </cc:Work>
    </rdf:RDF>
  </metadata>
  <g
     inkscape:label="Layer 1"
     inkscape:groupmode="layer"
     id="layer1"
     transform="translate(0,-932.36218)">
    <path
       sodipodi:nodetypes="ssscsssssccssssccsssscssssssscsscsssssssssscsssscs"
       inkscape:connector-curvature="0"
       id="path3110-1-5"
       d="m 69.338546,1001.9435 c -0.17392,-0.6283 0.86613,-1.5476 2.31122,-2.0429 1.44508,-0.4953 4.83732,-1.6482 7.53829,-2.5619 3.66124,-1.2385 5.09793,-2.3032 5.646,-4.184 0.77493,-2.6594 1.05317,-10.4864 0.42406,-11.9291 -0.20365,-0.467 -3.70714,-0.9552 -7.78555,-1.0848 -4.07841,-0.1297 -7.58467,-0.5445 -7.79168,-0.9217 -1.14368,-2.0844 1.09295,-2.9248 8.16658,-3.0688 5.03748,-0.1026 7.85664,-0.6278 7.78827,-1.4511 -0.0589,-0.7096 -0.43093,-2.8262 0.75313,-5.31669 5.92362,-5.43231 27.060044,-8.45131 34.757364,-8.82122 17.64275,-0.86367 40.17185,1.68835 49.91145,5.6538 10.12473,4.12221 14.54428,9.96051 11.50121,15.19331 -5.06757,8.7139 -34.04607,15.1067 -63.48999,14.0061 -3.13932,-0.1173 -5.23838,0.6975 -8.8083,3.4192 -5.55261,4.2333 -13.241954,5.9711 -24.530464,5.5437 -11.35789,-0.4299 -16.02886,-1.1235 -16.39155,-2.4339 z m 17.70447,-0.2844 c 7.64204,0.3907 16.044754,-1.1722 19.817484,-3.6859 1.83928,-1.2255 3.22136,-2.452 3.07128,-2.7255 -0.15008,-0.2735 -4.24184,-1.1765 -9.09281,-2.0066 -4.850964,-0.8301 -9.577034,-1.7261 -10.502364,-1.991 -1.24248,-0.3558 -1.91152,0.3045 -2.55861,2.5251 -0.64862,2.2259 -2.05718,3.6106 -5.42307,5.3314 -3.04943,1.5589 -3.87118,2.3188 -2.49515,2.3073 1.12844,-0.01 4.3609,0.101 7.18324,0.2452 z m 29.704474,-10.7888 7.70856,0.3547 1.72677,-6.2267 c 1.61506,-5.8241 1.30699,-11.6391 -0.99489,-18.77814 -0.60234,-1.86801 -12.25126,-1.33739 -24.49761,1.11586 -11.510424,2.30584 -12.666084,2.83808 -12.780864,5.88588 l -0.0956,2.5393 14.785774,-0.5405 c 12.65445,-0.4626 14.85615,-0.296 15.27393,1.1556 1.41925,4.9314 1.18847,4.969 -25.452364,4.1457 -3.74567,-0.1157 -5.67828,1.7796 -4.37504,4.2906 0.80666,1.5542 20.315224,5.6717 28.701364,6.0577 z m 44.71921,-3.2621 c 8.2745,-2.101 15.263,-5.4409 17.26477,-8.2513 0.59819,-0.8398 0.42511,-2.3924 -0.42008,-3.7679 -1.17158,-1.9067 -3.36832,-2.9678 -11.87398,-5.73529 -5.74006,-1.86764 -11.53577,-3.43712 -12.87934,-3.48771 l -2.44288,-0.092 0.79626,5.9588 c 0.43794,3.2773 0.51852,7.8686 0.17904,10.2028 -0.7921,5.4465 -0.75495,6.8078 0.19335,7.0841 0.42365,0.1235 4.55593,-0.7367 9.18286,-1.9115 z"
       style="fill:#000000" />
    <path
       sodipodi:nodetypes="cssssccsccscsccss"
       inkscape:connector-curvature="0"
       id="path3110-1-3"
       d="m 85.987946,966.64606 c -2.72346,-6.83039 -3.9436,-7.49417 -12.22911,-6.65322 -7.10122,0.72076 -9.77848,-0.0986 -7.8894,-2.41444 0.50369,-0.61749 5.81558,-3.37598 11.80421,-6.12998 12.77726,-5.87591 20.76357,-6.68061 28.241684,-4.80063 2.53143,0.6364 2.96771,1.12724 6.26284,1.77286 -6.51361,6.56213 -2.41788,3.71497 -26.190224,18.22541 z m 16.675684,-14.19631 c 3.75463,-1.96311 3.9713,-2.2778 2.25924,-3.28143 -4.88369,-2.8629 -17.030324,-0.51198 -27.110574,5.24711 l -4.27521,2.44252 3.87854,-0.32271 c 3.0582,-0.25441 4.603,0.31045 7.30386,2.67068 l 3.42533,2.99335 5.18295,-3.7891 c 2.85063,-2.08402 7.051774,-4.76622 9.335864,-5.96046 z"
       style="fill:#000000" />
    <path
       sodipodi:nodetypes="scscssccssssssccs"
       inkscape:connector-curvature="0"
       id="path4053-3"
       d="m 21.52168,997.6124 c -0.043,-4.3729 -0.02797,-11.5796 0.0022,-12.2523 0.176159,-3.9714 3.681245,-7.4436 8.74016,-8.6584 1.733449,-0.4162 4.950826,-0.4164 6.651318,-3e-4 4.251989,1.0401 7.384324,3.6161 8.469911,6.9654 0.338581,1.0446 0.289471,11.89 0.27092,13.8559 l -0.05134,5.4405 c -8.010184,0 -16.020374,0 -24.030558,0 z m 21.079136,-11.895 c 0.0052,-0.9346 -0.624377,-2.4628 -1.412454,-3.4571 -2.341037,-2.9539 -7.439855,-4.1057 -11.506367,-2.5993 -1.373742,0.5089 -3.064331,1.6641 -3.732554,2.5506 -0.738236,0.9794 -1.37243,2.5546 -1.371544,3.4115 l 0.01512,14.6205 c 6.007632,0 11.919123,0.085 17.92677,0.085 z"
       style="fill:#000000;fill-rule:nonzero" />
    <path
       sodipodi:nodetypes="cc"
       inkscape:connector-curvature="0"
       id="path4093"
       d="m 30.090286,977.3586 c -3.92949,-42.8822 9.52192,-42.84679 7.59954,0.2736"
       style="fill:none;stroke:#000000;stroke-width:2.60599995;stroke-linecap:butt;stroke-linejoin:miter;stroke-miterlimit:4;stroke-opacity:1;stroke-dasharray:none;marker-end:none" />
    <path
       sodipodi:nodetypes="cc"
       inkscape:connector-curvature="0"
       id="path4093-0"
       d="m 34.714297,946.17946 c 31.79824,2.23547 45.445209,17.53797 1.604749,8.52484"
       style="fill:none;stroke:#000000;stroke-width:2.80599999;stroke-linecap:butt;stroke-linejoin:miter;stroke-miterlimit:4;stroke-opacity:1;stroke-dasharray:none;marker-end:none" />
    <g
       transform="matrix(0.96592583,-0.25881905,0.25881905,0.96592583,-47.267964,898.59557)"
       id="g4324">
      <path
         style="fill:none;stroke:#000000;stroke-width:1.89999998;stroke-linejoin:round;stroke-miterlimit:4;stroke-opacity:1;stroke-dasharray:none"
         id="path4293"
         d="m 88.357079,85.721792 c 0.142611,0.409865 0.293715,0.817969 0.453615,1.221674 0.289503,0.587398 0.658423,1.129967 0.964564,1.708716 0.304152,0.597371 0.874034,0.965066 1.415852,1.326392 0.35378,0.208594 0.690487,0.455183 1.061564,0.633943 0.147302,0.07095 0.329716,0.127194 0.484519,0.179286 0.485556,0.144348 0.983092,0.210618 1.485405,0.256772 0.453657,0.01431 0.908162,-0.03556 1.357579,-0.09471 0.05892,-0.0094 0.117688,-0.01924 0.176553,-0.02876 0,0 -1.063447,1.354907 -1.063447,1.354907 l 0,0 c -0.05892,0.0072 -0.117846,0.01434 -0.176769,0.0215 -0.457038,0.04487 -0.916763,0.09448 -1.376306,0.06006 -0.51312,-0.05394 -1.022629,-0.127066 -1.516176,-0.284695 -0.178993,-0.06725 -0.329564,-0.118125 -0.500756,-0.20691 -0.367633,-0.190675 -0.709398,-0.434303 -1.061684,-0.65052 -0.563391,-0.376236 -1.150711,-0.77036 -1.474213,-1.38595 -0.306161,-0.582658 -0.669242,-1.131224 -0.992434,-1.704042 -0.168666,-0.398167 -0.298716,-0.813698 -0.504942,-1.19535 0,0 1.267069,-1.212332 1.267069,-1.212332 z"
         inkscape:connector-curvature="0" />
      <path
         style="fill:none;stroke:#000000;stroke-width:1.89999998;stroke-linejoin:round;stroke-miterlimit:4;stroke-opacity:1;stroke-dasharray:none"
         id="path4293-6"
         d="m 99.380986,83.236578 c -0.243814,-0.359003 -0.495269,-0.714185 -0.754164,-1.062782 -0.43159,-0.492521 -0.928295,-0.921203 -1.373711,-1.401073 -0.448312,-0.498371 -1.093912,-0.706147 -1.710755,-0.915033 -0.395694,-0.109986 -0.784721,-0.261097 -1.189409,-0.337789 -0.160652,-0.03036 -0.351403,-0.03755 -0.514402,-0.04786 -0.506373,-0.01384 -1.004119,0.05084 -1.501277,0.136183 -0.441916,0.103519 -0.868064,0.269211 -1.286883,0.442629 -0.05447,0.0243 -0.108712,0.04899 -0.163101,0.07344 0,0 0.676799,-1.583867 0.676799,-1.583867 l 0,0 c 0.05507,-0.02219 0.11012,-0.04433 0.165182,-0.0665 0.429871,-0.161589 0.861135,-0.3284 1.313941,-0.414005 0.509609,-0.08063 1.020693,-0.141771 1.538218,-0.117164 0.190306,0.01864 0.348897,0.02886 0.537237,0.07031 0.40443,0.08914 0.797591,0.236033 1.193818,0.353767 0.641535,0.217711 1.310806,0.446507 1.782525,0.957472 0.44645,0.48364 0.939066,0.919625 1.39942,1.389351 0.26595,0.340976 0.499057,0.708725 0.796956,1.02406 0,0 -0.910377,1.498815 -0.910377,1.498815 z"
         inkscape:connector-curvature="0" />
    </g>
    <text
       xml:space="preserve"
       style="font-size:31.15054512px;font-style:normal;font-variant:normal;font-weight:normal;font-stretch:normal;line-height:125%;letter-spacing:0px;word-spacing:0px;fill:#000000;fill-opacity:1;stroke:none;font-family:Kedage;-inkscape-font-specification:Kedage"
       x="32.923977"
       y="1028.239"
       id="text4476"
       sodipodi:linespacing="125%"><tspan
         sodipodi:role="line"
         x="32.923977"
         y="1028.239"
         style="font-style:normal;font-variant:normal;font-weight:normal;font-stretch:normal;font-family:FreeSans;-inkscape-font-specification:FreeSans"
         id="tspan3223">LaunchLib</tspan></text>
    <text
       xml:space="preserve"
       style="font-size:17.9510479px;font-style:normal;font-variant:normal;font-weight:normal;font-stretch:normal;line-height:125%;letter-spacing:0px;word-spacing:0px;fill:#000000;fill-opacity:1;stroke:none;font-family:Kedage;-inkscape-font-specification:Kedage"
       x="35.06905"
       y="1043.0886"
       id="text4476-0"
       sodipodi:linespacing="125%"><tspan
         sodipodi:role="line"
         x="35.06905"
         y="1043.0886"
         style="font-style:normal;font-variant:normal;font-weight:normal;font-stretch:normal;font-family:FreeSans;-inkscape-font-specification:FreeSans"
         id="tspan3236">get off the ground</tspan></text>
  </g>
</svg>
